<?xml version="1.0" encoding="UTF-8" standalone="no"?>
<!-- Created with Inkscape (http://www.inkscape.org/) -->

<svg
   xmlns:dc="http://purl.org/dc/elements/1.1/"
   xmlns:cc="http://creativecommons.org/ns#"
   xmlns:rdf="http://www.w3.org/1999/02/22-rdf-syntax-ns#"
   xmlns:svg="http://www.w3.org/2000/svg"
   xmlns="http://www.w3.org/2000/svg"
   xmlns:xlink="http://www.w3.org/1999/xlink"
   xmlns:sodipodi="http://sodipodi.sourceforge.net/DTD/sodipodi-0.dtd"
   xmlns:inkscape="http://www.inkscape.org/namespaces/inkscape"
   width="39.306458mm"
   height="14.056225mm"
   viewBox="0 0 39.306457 14.056225"
   version="1.1"
   id="svg838"
   inkscape:version="0.92.5 (2060ec1f9f, 2020-04-08)"
   sodipodi:docname="logo.dark.shapes.svg"
   inkscape:export-filename="/home/henning/Projects/capybara-lockstep/media/capybara-lockstep.dark.png"
   inkscape:export-xdpi="196"
   inkscape:export-ydpi="196">
  <defs
     id="defs832">
    <linearGradient
       inkscape:collect="always"
       id="linearGradient1406">
      <stop
         style="stop-color:#ff0844;stop-opacity:1"
         offset="0"
         id="stop1402" />
      <stop
         style="stop-color:#ffb199;stop-opacity:1"
         offset="1"
         id="stop1404" />
    </linearGradient>
    <linearGradient
       inkscape:collect="always"
       xlink:href="#linearGradient1406"
       id="linearGradient1408"
       x1="22.054907"
       y1="91.071762"
       x2="88.956696"
       y2="91.071762"
       gradientUnits="userSpaceOnUse"
       gradientTransform="matrix(0.58751979,0,0,0.08820435,-12.957695,57.908781)" />
  </defs>
  <sodipodi:namedview
     id="base"
     pagecolor="#ffffff"
     bordercolor="#666666"
     borderopacity="1.0"
     inkscape:pageopacity="0.0"
     inkscape:pageshadow="2"
     inkscape:zoom="4"
     inkscape:cx="17.132757"
     inkscape:cy="-43.059445"
     inkscape:document-units="mm"
     inkscape:current-layer="layer1"
     showgrid="false"
     fit-margin-top="0"
     fit-margin-left="0"
     fit-margin-right="0"
     fit-margin-bottom="0"
     inkscape:window-width="2560"
     inkscape:window-height="1391"
     inkscape:window-x="1920"
     inkscape:window-y="0"
     inkscape:window-maximized="1"
     inkscape:pagecheckerboard="true" />
  <metadata
     id="metadata835">
    <rdf:RDF>
      <cc:Work
         rdf:about="">
        <dc:format>image/svg+xml</dc:format>
        <dc:type
           rdf:resource="http://purl.org/dc/dcmitype/StillImage" />
        <dc:title></dc:title>
      </cc:Work>
    </rdf:RDF>
  </metadata>
  <g
     inkscape:label="Layer 1"
     inkscape:groupmode="layer"
     id="layer1"
     transform="translate(0,-52.518951)">
    <g
       aria-label="CONSUL"
       style="font-style:normal;font-variant:normal;font-weight:normal;font-stretch:normal;font-size:10.58333302px;line-height:1.25;font-family:'League Spartan';-inkscape-font-specification:'League Spartan';letter-spacing:0px;word-spacing:0px;fill:#ffffff;fill-opacity:1;stroke:none;stroke-width:0.26458332"
       id="text1385">
      <path
         d="m 3.8629165,58.191618 q 0.4868334,0 0.8837084,-0.142875 0.4021666,-0.142875 0.5979583,-0.280459 l 0.6773333,1.344084 q -0.2487083,0.211666 -0.8519583,0.428625 -0.5979583,0.216958 -1.4234583,0.216958 -0.7725833,0 -1.4499166,-0.269875 Q 1.6192499,59.218201 1.1006666,58.731368 0.58737498,58.239243 0.29104166,57.583076 0,56.921618 0,56.149034 0,55.376451 0.29104166,54.714993 0.58208331,54.048243 1.095375,53.556118 q 0.5185833,-0.492125 1.1959166,-0.762 0.682625,-0.275167 1.4552083,-0.275167 0.8255,0 1.4234583,0.216958 0.60325,0.216959 0.8519583,0.428625 L 5.3445832,54.508618 Q 5.1487915,54.365743 4.7466249,54.228159 4.3497499,54.085284 3.8629165,54.085284 q -0.5397499,0 -0.9419166,0.169334 -0.4021666,0.164041 -0.6720416,0.455083 -0.269875,0.291042 -0.4021667,0.656167 -0.1322917,0.365125 -0.1322917,0.767291 0,0.407459 0.1322917,0.777875 0.1322917,0.365125 0.4021667,0.656167 0.269875,0.291042 0.6720416,0.460375 0.4021667,0.164042 0.9419166,0.164042 z"
         style="font-style:normal;font-variant:normal;font-weight:bold;font-stretch:normal;font-family:'League Spartan';-inkscape-font-specification:'League Spartan';fill:#ffffff;fill-opacity:1;stroke-width:0.26458332"
         id="path822" />
      <path
         d="m 8.4084457,56.133159 q 0,0.597959 0.2434166,1.084792 0.2487084,0.481542 0.682625,0.767292 0.4392083,0.28575 1.0159997,0.28575 0.576792,0 1.010709,-0.28575 0.439208,-0.28575 0.682625,-0.767292 0.248708,-0.486833 0.248708,-1.084792 0,-0.597958 -0.248708,-1.0795 -0.243417,-0.481541 -0.682625,-0.767291 -0.433917,-0.291042 -1.010709,-0.291042 -0.5767914,0 -1.0159997,0.291042 -0.4339166,0.28575 -0.682625,0.767291 -0.2434166,0.481542 -0.2434166,1.0795 z m -1.6457083,0 q 0,-0.762 0.269875,-1.418166 0.269875,-0.661459 0.7567083,-1.153584 0.4868333,-0.492125 1.143,-0.767291 0.6561666,-0.275167 1.4181663,-0.275167 0.772584,0 1.423459,0.275167 0.656166,0.275166 1.137708,0.767291 0.486833,0.492125 0.751417,1.153584 0.269875,0.656166 0.269875,1.418166 0,0.767292 -0.259292,1.42875 -0.259292,0.656167 -0.740833,1.153584 -0.481542,0.492125 -1.137709,0.767291 -0.656166,0.275167 -1.444625,0.275167 -0.804333,0 -1.4657913,-0.275167 Q 8.228529,59.207618 7.752279,58.715493 7.2760291,58.218076 7.0167374,57.561909 q -0.254,-0.661458 -0.254,-1.42875 z"
         style="font-style:normal;font-variant:normal;font-weight:bold;font-stretch:normal;font-family:'League Spartan';-inkscape-font-specification:'League Spartan';fill:#ffffff;fill-opacity:1;stroke-width:0.26458332"
         id="path824" />
      <path
         d="m 16.303598,54.095868 0.116417,0.02117 v 5.513917 h -1.582208 v -6.985 h 2.159 l 2.831041,5.503333 -0.116416,0.02117 v -5.5245 h 1.582208 v 6.985 h -2.169583 z"
         style="font-style:normal;font-variant:normal;font-weight:bold;font-stretch:normal;font-family:'League Spartan';-inkscape-font-specification:'League Spartan';fill:#ffffff;fill-opacity:1;stroke-width:0.26458332"
         id="path826" />
      <path
         d="m 25.034843,52.518951 q 0.650875,0 1.137709,0.142875 0.486833,0.142875 0.783166,0.301625 0.296334,0.15875 0.359834,0.211667 l -0.762,1.275291 q -0.08467,-0.0635 -0.291042,-0.185208 -0.201083,-0.121708 -0.481542,-0.216958 -0.275166,-0.09525 -0.576791,-0.09525 -0.407459,0 -0.661459,0.148166 -0.248708,0.142875 -0.248708,0.428625 0,0.195792 0.132292,0.354542 0.137583,0.153458 0.41275,0.296333 0.280458,0.137584 0.709083,0.301625 0.391583,0.142875 0.735542,0.338667 0.343958,0.195792 0.60325,0.465667 0.264583,0.264583 0.418041,0.613833 0.153459,0.34925 0.153459,0.79375 0,0.529167 -0.216959,0.92075 -0.216958,0.386292 -0.592666,0.640292 -0.370417,0.254 -0.846667,0.375708 -0.470958,0.127 -0.978958,0.127 -0.719667,0 -1.291167,-0.164042 -0.566208,-0.164041 -0.915458,-0.354541 -0.34925,-0.1905 -0.418042,-0.254 l 0.788458,-1.328209 q 0.0635,0.04762 0.243417,0.153459 0.185208,0.105833 0.449792,0.22225 0.264583,0.111125 0.560916,0.1905 0.301625,0.07937 0.592667,0.07937 0.486833,0 0.73025,-0.185209 0.243417,-0.1905 0.243417,-0.497416 0,-0.227542 -0.153459,-0.407459 -0.153458,-0.179916 -0.460375,-0.338666 -0.306916,-0.164042 -0.767291,-0.343959 -0.460375,-0.185208 -0.862542,-0.449791 -0.396875,-0.264584 -0.645583,-0.661459 -0.248709,-0.396875 -0.248709,-0.98425 0,-0.587375 0.328084,-1.016 0.333375,-0.433916 0.873125,-0.66675 0.545041,-0.232833 1.164166,-0.232833 z"
         style="font-style:normal;font-variant:normal;font-weight:bold;font-stretch:normal;font-family:'League Spartan';-inkscape-font-specification:'League Spartan';fill:#ffffff;fill-opacity:1;stroke-width:0.26458332"
         id="path828" />
      <path
         d="m 32.448465,52.645951 h 1.582208 v 4.291542 q 0,0.862541 -0.338667,1.497541 -0.338666,0.629709 -0.968375,0.978959 -0.629708,0.343958 -1.502833,0.343958 -0.878417,0 -1.513417,-0.343958 -0.635,-0.34925 -0.973666,-0.978959 -0.333375,-0.635 -0.333375,-1.497541 v -4.291542 h 1.576916 v 4.206875 q 0,0.47625 0.148167,0.804333 0.153458,0.328084 0.433917,0.497417 0.280458,0.164042 0.661458,0.164042 0.375708,0 0.650875,-0.164042 0.275167,-0.169333 0.423333,-0.497417 0.153459,-0.328083 0.153459,-0.804333 z"
         style="font-style:normal;font-variant:normal;font-weight:bold;font-stretch:normal;font-family:'League Spartan';-inkscape-font-specification:'League Spartan';fill:#ffffff;fill-opacity:1;stroke-width:0.26458332"
         id="path830" />
      <path
         d="m 35.189541,52.645951 h 1.582208 v 5.598583 h 2.534708 v 1.386417 h -4.116916 z"
         style="font-style:normal;font-variant:normal;font-weight:bold;font-stretch:normal;font-family:'League Spartan';-inkscape-font-specification:'League Spartan';fill:#ffffff;fill-opacity:1;stroke-width:0.26458332"
         id="path832" />
    </g>
    <rect
       style="fill:url(#linearGradient1408);fill-opacity:1;stroke:none;stroke-width:0.02276438;stroke-miterlimit:4;stroke-dasharray:none;stroke-opacity:1"
       id="rect1387"
       width="39.306122"
       height="1.2668874"
       x="-3.5527137e-15"
       y="65.308289" />
  </g>
</svg>
